<svg width="60" height="60" viewBox="0 0 60 60" xmlns="http://www.w3.org/2000/svg">
  <defs>
    <linearGradient id="frontendGrad" x1="0%" y1="0%" x2="100%" y2="100%">
      <stop offset="0%" style="stop-color:#FF4654;stop-opacity:1" />
      <stop offset="100%" style="stop-color:#FFCC00;stop-opacity:1" />
    </linearGradient>
    <filter id="glow">
      <feGaussianBlur stdDeviation="2" result="coloredBlur"/>
      <feMerge> 
        <feMergeNode in="coloredBlur"/>
        <feMergeNode in="SourceGraphic"/>
      </feMerge>
    </filter>
  </defs>
  
  <!-- Frontend lightning bolt design -->
  <g transform="translate(30,30)" filter="url(#glow)">
    <!-- Main lightning bolt -->
    <path d="M-12,-20 L8,-8 L-4,-8 L12,20 L-8,8 L4,8 Z" 
          fill="url(#frontendGrad)" stroke="#FF4654" stroke-width="2"/>
    
    <!-- Energy particles -->
    <circle cx="-18" cy="-15" r="2" fill="#FFCC00" opacity="0.8"/>
    <circle cx="18" cy="15" r="2" fill="#FFCC00" opacity="0.8"/>
    <circle cx="-15" cy="18" r="1.5" fill="#FF4654" opacity="0.6"/>
    <circle cx="15" cy="-18" r="1.5" fill="#FF4654" opacity="0.6"/>
    
    <!-- Tactical frame -->
    <rect x="-25" y="-25" width="50" height="50" fill="none" stroke="#FF4654" stroke-width="2" opacity="0.3"/>
    
    <!-- Corner brackets -->
    <path d="M-25,-25 L-20,-25 M-25,-25 L-25,-20 M20,-25 L25,-25 M25,-25 L25,-20 M-25,20 L-25,25 M-25,25 L-20,25 M25,20 L25,25 M20,25 L25,25" 
          stroke="#FFCC00" stroke-width="2" fill="none"/>
    
    <!-- Power indicators -->
    <circle cx="-22" cy="-22" r="1.5" fill="#FFCC00"/>
    <circle cx="22" cy="-22" r="1.5" fill="#FFCC00"/>
    <circle cx="22" cy="22" r="1.5" fill="#FFCC00"/>
    <circle cx="-22" cy="22" r="1.5" fill="#FFCC00"/>
    
    <!-- Central core -->
    <circle cx="0" cy="0" r="3" fill="#FFCC00" opacity="0.8"/>
    <text x="0" y="2" text-anchor="middle" font-family="monospace" font-size="4" 
          fill="#0D1117" font-weight="bold">F</text>
  </g>
</svg>