<svg width="32" height="32" viewBox="0 0 32 32" xmlns="http://www.w3.org/2000/svg">
  <defs>
    <filter id="glow">
      <feGaussianBlur stdDeviation="1.5" result="coloredBlur"/>
      <feMerge> 
        <feMergeNode in="coloredBlur"/>
        <feMergeNode in="SourceGraphic"/>
      </feMerge>
    </filter>
  </defs>
  
  <!-- Valorant professional network display -->
  <g filter="url(#glow)">
    <!-- Main networking container -->
    <path d="M6 4C4.9 4 4 4.9 4 6V26C4 27.1 4.9 28 6 28H26C27.1 28 28 27.1 28 26V6C28 4.9 27.1 4 26 4H6Z" 
          fill="none" stroke="#FF4654" stroke-width="2"/>
    <path d="M6 4C4.9 4 4 4.9 4 6V26C4 27.1 4.9 28 6 28H26C27.1 28 28 27.1 28 26V6C28 4.9 27.1 4 26 4H6Z" 
          fill="#FF4654" opacity="0.1"/>
    
    <!-- Professional profile section -->
    <circle cx="10" cy="10" r="3" fill="none" stroke="#FF4654" stroke-width="1.5"/>
    <circle cx="10" cy="10" r="2" fill="#FF4654" opacity="0.3"/>
    
    <!-- Network connections -->
    <rect x="7" y="16" width="6" height="8" fill="none" stroke="#FF4654" stroke-width="1.5"/>
    <rect x="7" y="16" width="6" height="8" fill="#FF4654" opacity="0.2"/>
    
    <!-- Professional bars (experience indicators) -->
    <rect x="16" y="14" width="8" height="2" fill="#FF4654" opacity="0.8"/>
    <rect x="16" y="17" width="6" height="2" fill="#FF4654" opacity="0.6"/>
    <rect x="16" y="20" width="10" height="2" fill="#FF4654" opacity="0.8"/>
    <rect x="16" y="23" width="4" height="2" fill="#FF4654" opacity="0.4"/>
    
    <!-- Network nodes -->
    <circle cx="20" cy="8" r="1.5" fill="#FF4654"/>
    <circle cx="24" cy="10" r="1.2" fill="#FF4654" opacity="0.8"/>
    <circle cx="22" cy="12" r="1" fill="#FF4654" opacity="0.6"/>
    
    <!-- Connection lines -->
    <path d="M10 13L16 15L20 8L24 10" stroke="#FF4654" stroke-width="1" opacity="0.5" fill="none"/>
    
    <!-- Tactical scan overlay -->
    <line x1="6" y1="8" x2="26" y2="8" stroke="#FF4654" stroke-width="0.5" opacity="0.3"/>
    <line x1="6" y1="16" x2="26" y2="16" stroke="#FF4654" stroke-width="0.5" opacity="0.3"/>
    <line x1="6" y1="24" x2="26" y2="24" stroke="#FF4654" stroke-width="0.5" opacity="0.3"/>
    
    <!-- Corner brackets -->
    <path d="M4,4 L6,4 M4,4 L4,6 M26,4 L28,4 M28,4 L28,6 M4,26 L4,28 M4,28 L6,28 M28,26 L28,28 M26,28 L28,28" 
          stroke="#FF4654" stroke-width="2" fill="none"/>
    
    <!-- Professional status indicators -->
    <rect x="25" y="5" width="2" height="2" fill="#FF4654" opacity="0.8"/>
    <rect x="25" y="8" width="2" height="1" fill="#FF4654" opacity="0.6"/>
    <rect x="25" y="10" width="2" height="1.5" fill="#FF4654" opacity="0.4"/>
    
    <!-- Central targeting system -->
    <circle cx="16" cy="16" r="2" fill="none" stroke="#FF4654" stroke-width="1" opacity="0.4"/>
    <circle cx="16" cy="16" r="1" fill="#FF4654" opacity="0.6"/>
    
    <!-- Tactical frame -->
    <rect x="2" y="2" width="28" height="28" fill="none" stroke="#FF4654" stroke-width="1" opacity="0.3"/>
  </g>
</svg>