<svg width="32" height="32" viewBox="0 0 32 32" xmlns="http://www.w3.org/2000/svg">
  <defs>
    <filter id="glow">
      <feGaussianBlur stdDeviation="1.5" result="coloredBlur"/>
      <feMerge> 
        <feMergeNode in="coloredBlur"/>
        <feMergeNode in="SourceGraphic"/>
      </feMerge>
    </filter>
  </defs>
  
  <!-- Valorant code repository tactical display -->
  <g filter="url(#glow)">
    <!-- Main repository container -->
    <circle cx="16" cy="16" r="12" fill="none" stroke="#FF4654" stroke-width="2"/>
    <circle cx="16" cy="16" r="12" fill="#FF4654" opacity="0.1"/>
    
    <!-- Code branches (octopus tentacles styled) -->
    <path d="M16 4C20 6 24 10 26 14" stroke="#FF4654" stroke-width="2" fill="none" opacity="0.8"/>
    <path d="M28 16C26 20 22 24 18 26" stroke="#FF4654" stroke-width="2" fill="none" opacity="0.8"/>
    <path d="M16 28C12 26 8 22 6 18" stroke="#FF4654" stroke-width="2" fill="none" opacity="0.8"/>
    <path d="M4 16C6 12 10 8 14 6" stroke="#FF4654" stroke-width="2" fill="none" opacity="0.8"/>
    
    <!-- Central code core -->
    <circle cx="16" cy="16" r="4" fill="none" stroke="#FF4654" stroke-width="1.5"/>
    <circle cx="16" cy="16" r="2.5" fill="#FF4654" opacity="0.3"/>
    
    <!-- Code symbols -->
    <text x="16" y="18" text-anchor="middle" font-family="monospace" font-size="6" 
          fill="#FF4654" font-weight="bold">&lt;/&gt;</text>
    
    <!-- Repository nodes -->
    <circle cx="16" cy="6" r="2" fill="#FF4654" opacity="0.8"/>
    <circle cx="26" cy="16" r="2" fill="#FF4654" opacity="0.8"/>
    <circle cx="16" cy="26" r="2" fill="#FF4654" opacity="0.8"/>
    <circle cx="6" cy="16" r="2" fill="#FF4654" opacity="0.8"/>
    
    <!-- Commit indicators -->
    <circle cx="20" cy="8" r="1" fill="#FF4654"/>
    <circle cx="24" cy="12" r="1" fill="#FF4654"/>
    <circle cx="24" cy="20" r="1" fill="#FF4654"/>
    <circle cx="20" cy="24" r="1" fill="#FF4654"/>
    <circle cx="12" cy="24" r="1" fill="#FF4654"/>
    <circle cx="8" cy="20" r="1" fill="#FF4654"/>
    <circle cx="8" cy="12" r="1" fill="#FF4654"/>
    <circle cx="12" cy="8" r="1" fill="#FF4654"/>
    
    <!-- Data flow lines -->
    <line x1="12" y1="12" x2="20" y2="12" stroke="#FF4654" stroke-width="1" opacity="0.6"/>
    <line x1="12" y1="16" x2="20" y2="16" stroke="#FF4654" stroke-width="1" opacity="0.4"/>
    <line x1="12" y1="20" x2="20" y2="20" stroke="#FF4654" stroke-width="1" opacity="0.6"/>
    
    <!-- Tactical scan rings -->
    <circle cx="16" cy="16" r="8" fill="none" stroke="#FF4654" stroke-width="0.5" opacity="0.3"/>
    <circle cx="16" cy="16" r="10" fill="none" stroke="#FF4654" stroke-width="0.5" opacity="0.2"/>
    
    <!-- Corner brackets -->
    <path d="M4,4 L6,4 M4,4 L4,6 M26,4 L28,4 M28,4 L28,6 M4,26 L4,28 M4,28 L6,28 M28,26 L28,28 M26,28 L28,28" 
          stroke="#FF4654" stroke-width="2" fill="none"/>
    
    <!-- Version control indicators -->
    <rect x="26" y="2" width="3" height="1" fill="#FF4654" opacity="0.8"/>
    <rect x="26" y="4" width="2" height="1" fill="#FF4654" opacity="0.6"/>
    <rect x="26" y="6" width="4" height="1" fill="#FF4654" opacity="0.4"/>
    
    <!-- Tactical frame -->
    <rect x="2" y="2" width="28" height="28" fill="none" stroke="#FF4654" stroke-width="1" opacity="0.3"/>
  </g>
</svg>