<svg width="80" height="80" viewBox="0 0 80 80" xmlns="http://www.w3.org/2000/svg">
  <defs>
    <linearGradient id="jsGrad" x1="0%" y1="0%" x2="100%" y2="100%">
      <stop offset="0%" style="stop-color:#FF4654;stop-opacity:1" />
      <stop offset="100%" style="stop-color:#FF4654;stop-opacity:0.6" />
    </linearGradient>
    <filter id="glow">
      <feGaussianBlur stdDeviation="2" result="coloredBlur"/>
      <feMerge> 
        <feMergeNode in="coloredBlur"/>
        <feMergeNode in="SourceGraphic"/>
      </feMerge>
    </filter>
  </defs>
  
  <!-- Tactical frame -->
  <rect x="2" y="2" width="76" height="76" fill="none" stroke="#FF4654" stroke-width="2" opacity="0.3"/>
  <rect x="8" y="8" width="64" height="64" fill="none" stroke="url(#jsGrad)" stroke-width="1"/>
  
  <!-- Corner brackets -->
  <path d="M8,8 L15,8 M8,8 L8,15 M65,8 L72,8 M72,8 L72,15 M8,65 L8,72 M8,72 L15,72 M72,65 L72,72 M65,72 L72,72" 
        stroke="#FF4654" stroke-width="2" fill="none"/>
  
  <!-- JS hexagon -->
  <g transform="translate(40,40)" filter="url(#glow)">
    <path d="M-18,0 L-9,-15 L9,-15 L18,0 L9,15 L-9,15 Z" 
          fill="none" stroke="#FF4654" stroke-width="2"/>
    <path d="M-18,0 L-9,-15 L9,-15 L18,0 L9,15 L-9,15 Z" 
          fill="url(#jsGrad)" opacity="0.2"/>
    
    <!-- JS text -->
    <text x="0" y="5" text-anchor="middle" font-family="monospace" font-size="14" 
          fill="#FF4654" font-weight="bold">JS</text>
    
    <!-- Circuit lines -->
    <line x1="-12" y1="-8" x2="-8" y2="-12" stroke="#FF4654" stroke-width="1" opacity="0.6"/>
    <line x1="8" y1="-12" x2="12" y2="-8" stroke="#FF4654" stroke-width="1" opacity="0.6"/>
    <line x1="12" y1="8" x2="8" y2="12" stroke="#FF4654" stroke-width="1" opacity="0.6"/>
    <line x1="-8" y1="12" x2="-12" y2="8" stroke="#FF4654" stroke-width="1" opacity="0.6"/>
    
    <!-- Connection nodes -->
    <circle cx="-9" cy="-15" r="1.5" fill="#FF4654"/>
    <circle cx="9" cy="-15" r="1.5" fill="#FF4654"/>
    <circle cx="18" cy="0" r="1.5" fill="#FF4654"/>
    <circle cx="9" cy="15" r="1.5" fill="#FF4654"/>
    <circle cx="-9" cy="15" r="1.5" fill="#FF4654"/>
    <circle cx="-18" cy="0" r="1.5" fill="#FF4654"/>
  </g>
  
  <!-- Tactical grid -->
  <line x1="20" y1="20" x2="60" y2="20" stroke="#FF4654" stroke-width="1" opacity="0.2"/>
  <line x1="20" y1="60" x2="60" y2="60" stroke="#FF4654" stroke-width="1" opacity="0.2"/>
  <line x1="20" y1="20" x2="20" y2="60" stroke="#FF4654" stroke-width="1" opacity="0.2"/>
  <line x1="60" y1="20" x2="60" y2="60" stroke="#FF4654" stroke-width="1" opacity="0.2"/>
</svg>