<svg width="24" height="24" viewBox="0 0 24 24" xmlns="http://www.w3.org/2000/svg">
  <defs>
    <filter id="glow">
      <feGaussianBlur stdDeviation="1" result="coloredBlur"/>
      <feMerge> 
        <feMergeNode in="coloredBlur"/>
        <feMergeNode in="SourceGraphic"/>
      </feMerge>
    </filter>
  </defs>
  
  <!-- Monochromatic tactical shield -->
  <g filter="url(#glow)">
    <!-- Main shield outline -->
    <path d="M12 2L4 6V12C4 16.5 7 20.26 12 22C17 20.26 20 16.5 20 12V6L12 2Z" 
          fill="none" stroke="#FF4654" stroke-width="2"/>
    <path d="M12 2L4 6V12C4 16.5 7 20.26 12 22C17 20.26 20 16.5 20 12V6L12 2Z" 
          fill="#FF4654" opacity="0.1"/>
    
    <!-- Inner tactical pattern -->
    <path d="M9 11L11 13L15 9L17 11L11 17L7 13L9 11Z" 
          fill="none" stroke="#FF4654" stroke-width="1.5" opacity="0.8"/>
    <path d="M9 11L11 13L15 9L17 11L11 17L7 13L9 11Z" 
          fill="#FF4654" opacity="0.2"/>
    
    <!-- Tactical scan lines -->
    <line x1="8" y1="8" x2="16" y2="8" stroke="#FF4654" stroke-width="1" opacity="0.6"/>
    <line x1="6" y1="11" x2="18" y2="11" stroke="#FF4654" stroke-width="1" opacity="0.4"/>
    <line x1="7" y1="14" x2="17" y2="14" stroke="#FF4654" stroke-width="1" opacity="0.6"/>
    
    <!-- Central targeting core -->
    <circle cx="12" cy="12" r="1.5" fill="#FF4654"/>
    <circle cx="12" cy="12" r="3" fill="none" stroke="#FF4654" stroke-width="1" opacity="0.4"/>
    
    <!-- Corner brackets -->  
    <path d="M4,6 L6,6 M4,6 L4,8 M18,6 L20,6 M20,6 L20,8 M6,20 L4,20 M4,20 L4,18 M20,18 L20,20 M18,20 L20,20" 
          stroke="#FF4654" stroke-width="1.5" fill="none"/>
    
    <!-- Connection nodes -->
    <circle cx="12" cy="2" r="1" fill="#FF4654"/>
    <circle cx="4" cy="6" r="0.8" fill="#FF4654" opacity="0.8"/>
    <circle cx="20" cy="6" r="0.8" fill="#FF4654" opacity="0.8"/>
    
    <!-- Tactical frame -->
    <rect x="3" y="5" width="18" height="17" fill="none" stroke="#FF4654" stroke-width="1" opacity="0.3"/>
  </g>
</svg>