<svg width="24" height="24" viewBox="0 0 24 24" xmlns="http://www.w3.org/2000/svg">
  <defs>
    <linearGradient id="mapsGrad" x1="0%" y1="0%" x2="100%" y2="100%">
      <stop offset="0%" style="stop-color:#FF4654;stop-opacity:1" />
      <stop offset="100%" style="stop-color:#FFCC00;stop-opacity:1" />
    </linearGradient>
    <filter id="glow">
      <feGaussianBlur stdDeviation="1" result="coloredBlur"/>
      <feMerge> 
        <feMergeNode in="coloredBlur"/>
        <feMergeNode in="SourceGraphic"/>
      </feMerge>
    </filter>
  </defs>
  
  <!-- Tactical map display -->
  <g filter="url(#glow)">
    <!-- Map base -->
    <path d="M2 3L8 2L16 4L22 2V19L16 21L8 19L2 21V3Z" 
          fill="url(#mapsGrad)" stroke="#FF4654" stroke-width="1.5" opacity="0.8"/>
    
    <!-- Map sections -->
    <path d="M2 3L8 2V19L2 21V3Z" fill="#FFCC00" opacity="0.3"/>
    <path d="M16 4L22 2V19L16 21V4Z" fill="#FFCC00" opacity="0.3"/>
    
    <!-- Fold lines -->
    <line x1="8" y1="2" x2="8" y2="19" stroke="#FF4654" stroke-width="1" opacity="0.6"/>
    <line x1="16" y1="4" x2="16" y2="21" stroke="#FF4654" stroke-width="1" opacity="0.6"/>
    
    <!-- Waypoints -->
    <circle cx="5" cy="8" r="1.5" fill="#FFCC00"/>
    <circle cx="12" cy="10" r="1.5" fill="#FFCC00"/>
    <circle cx="19" cy="7" r="1.5" fill="#FFCC00"/>
    
    <!-- Connection routes -->
    <path d="M5 8L12 10L19 7" stroke="#FFCC00" stroke-width="1.5" opacity="0.8"/>
    
    <!-- Targeting reticles -->
    <circle cx="5" cy="8" r="3" fill="none" stroke="#FF4654" stroke-width="1" opacity="0.4"/>
    <circle cx="12" cy="10" r="3" fill="none" stroke="#FF4654" stroke-width="1" opacity="0.4"/>
    <circle cx="19" cy="7" r="3" fill="none" stroke="#FF4654" stroke-width="1" opacity="0.4"/>
    
    <!-- Grid overlay -->
    <line x1="3" y1="6" x2="21" y2="6" stroke="#FFCC00" stroke-width="0.5" opacity="0.4"/>
    <line x1="3" y1="12" x2="21" y2="12" stroke="#FFCC00" stroke-width="0.5" opacity="0.4"/>
    <line x1="3" y1="18" x2="21" y2="18" stroke="#FFCC00" stroke-width="0.5" opacity="0.4"/>
    
    <!-- Corner brackets -->
    <path d="M2,3 L4,3 M2,3 L2,5 M20,3 L22,3 M22,3 L22,5 M2,19 L2,21 M2,21 L4,21 M22,19 L22,21 M20,21 L22,21" 
          stroke="#FFCC00" stroke-width="1.5" fill="none"/>
    
    <!-- Tactical frame -->
    <rect x="1" y="1" width="22" height="22" fill="none" stroke="#FF4654" stroke-width="1" opacity="0.3"/>
  </g>
</svg>