<svg width="24" height="24" viewBox="0 0 24 24" xmlns="http://www.w3.org/2000/svg">
  <defs>
    <linearGradient id="homeGrad" x1="0%" y1="0%" x2="100%" y2="100%">
      <stop offset="0%" style="stop-color:#FF4654;stop-opacity:1" />
      <stop offset="100%" style="stop-color:#FFCC00;stop-opacity:1" />
    </linearGradient>
    <filter id="glow">
      <feGaussianBlur stdDeviation="1" result="coloredBlur"/>
      <feMerge> 
        <feMergeNode in="coloredBlur"/>
        <feMergeNode in="SourceGraphic"/>
      </feMerge>
    </filter>
  </defs>
  
  <!-- Home base structure -->
  <g filter="url(#glow)">
    <!-- Main house outline -->
    <path d="M12 3L20 9V20C20 20.5 19.5 21 19 21H5C4.5 21 4 20.5 4 20V9L12 3Z" 
          fill="url(#homeGrad)" stroke="#FF4654" stroke-width="1.5" opacity="0.8"/>
    
    <!-- Roof highlight -->
    <path d="M12 3L20 9H4L12 3Z" fill="#FFCC00" opacity="0.6"/>
    
    <!-- Door -->
    <rect x="9" y="14" width="6" height="7" fill="none" stroke="#FF4654" stroke-width="1.5"/>
    <rect x="9" y="14" width="6" height="7" fill="#FFCC00" opacity="0.3"/>
    
    <!-- Windows -->
    <rect x="6" y="11" width="4" height="4" fill="none" stroke="#FFCC00" stroke-width="1"/>
    <rect x="14" y="11" width="4" height="4" fill="none" stroke="#FFCC00" stroke-width="1"/>
    
    <!-- Window lights -->
    <rect x="6" y="11" width="4" height="4" fill="#FFCC00" opacity="0.4"/>
    <rect x="14" y="11" width="4" height="4" fill="#FFCC00" opacity="0.4"/>
    
    <!-- Tactical frame -->
    <rect x="2" y="2" width="20" height="20" fill="none" stroke="#FF4654" stroke-width="1" opacity="0.3"/>
    
    <!-- Corner indicators -->
    <circle cx="3" cy="3" r="1" fill="#FFCC00"/>
    <circle cx="21" cy="3" r="1" fill="#FFCC00"/>
    <circle cx="21" cy="21" r="1" fill="#FFCC00"/>
    <circle cx="3" cy="21" r="1" fill="#FFCC00"/>
    
    <!-- Central beacon -->
    <circle cx="12" cy="12" r="2" fill="#FFCC00" opacity="0.8"/>
    <circle cx="12" cy="12" r="1" fill="#FF4654"/>
  </g>
</svg>