<svg width="24" height="24" viewBox="0 0 24 24" xmlns="http://www.w3.org/2000/svg">
  <defs>
    <filter id="glow">
      <feGaussianBlur stdDeviation="1" result="coloredBlur"/>
      <feMerge> 
        <feMergeNode in="coloredBlur"/>
        <feMergeNode in="SourceGraphic"/>
      </feMerge>
    </filter>
  </defs>
  
  <!-- Monochromatic tactical home -->
  <g filter="url(#glow)">
    <!-- Main structure -->
    <path d="M12 2L2 9V22H9V16H15V22H22V9L12 2Z" 
          fill="none" stroke="#FF4654" stroke-width="2"/>
    <path d="M12 2L2 9V22H9V16H15V22H22V9L12 2Z" 
          fill="#FF4654" opacity="0.1"/>
    
    <!-- Tactical roof line -->
    <path d="M12 2L22 9L12 5L2 9L12 2Z" 
          fill="none" stroke="#FF4654" stroke-width="1.5" opacity="0.8"/>
    
    <!-- Central entry -->
    <rect x="10" y="16" width="4" height="6" 
          fill="none" stroke="#FF4654" stroke-width="1.5"/>
    <rect x="10" y="16" width="4" height="6" 
          fill="#FF4654" opacity="0.2"/>
    
    <!-- Tactical frame -->
    <rect x="1" y="8" width="22" height="15" 
          fill="none" stroke="#FF4654" stroke-width="1" opacity="0.3"/>
    
    <!-- Corner brackets -->
    <path d="M2,9 L4,9 M2,9 L2,11 M20,9 L22,9 M22,9 L22,11 M2,21 L2,22 M2,22 L4,22 M22,21 L22,22 M20,22 L22,22" 
          stroke="#FF4654" stroke-width="1.5" fill="none"/>
    
    <!-- Targeting dot -->
    <circle cx="12" cy="2" r="1" fill="#FF4654"/>
    
    <!-- Scan line -->
    <line x1="2" y1="15" x2="22" y2="15" stroke="#FF4654" stroke-width="1" opacity="0.4"/>
  </g>
</svg>