<svg width="24" height="24" viewBox="0 0 24 24" xmlns="http://www.w3.org/2000/svg">
  <defs>
    <filter id="glow">
      <feGaussianBlur stdDeviation="1" result="coloredBlur"/>
      <feMerge> 
        <feMergeNode in="coloredBlur"/>
        <feMergeNode in="SourceGraphic"/>
      </feMerge>
    </filter>
  </defs>
  
  <!-- Monochromatic tactical communication device -->
  <g filter="url(#glow)">
    <!-- Main device body outline -->
    <path d="M17 2H7C5.9 2 5 2.9 5 4V20C5 21.1 5.9 22 7 22H17C18.1 22 19 21.1 19 20V4C19 2.9 18.1 2 17 2Z" 
          fill="none" stroke="#FF4654" stroke-width="2"/>
    <path d="M17 2H7C5.9 2 5 2.9 5 4V20C5 21.1 5.9 22 7 22H17C18.1 22 19 21.1 19 20V4C19 2.9 18.1 2 17 2Z" 
          fill="#FF4654" opacity="0.1"/>
    
    <!-- Communication button -->
    <circle cx="12" cy="16" r="2" fill="none" stroke="#FF4654" stroke-width="1.5"/>
    <circle cx="12" cy="16" r="1" fill="#FF4654"/>
    
    <!-- Data transmission lines -->
    <line x1="8" y1="6" x2="16" y2="6" stroke="#FF4654" stroke-width="1" opacity="0.8"/>
    <line x1="8" y1="8" x2="14" y2="8" stroke="#FF4654" stroke-width="1" opacity="0.6"/>
    <line x1="8" y1="10" x2="16" y2="10" stroke="#FF4654" stroke-width="1" opacity="0.8"/>
    <line x1="8" y1="12" x2="12" y2="12" stroke="#FF4654" stroke-width="1" opacity="0.6"/>
    
    <!-- Tactical frame -->
    <rect x="4" y="1" width="16" height="22" fill="none" stroke="#FF4654" stroke-width="1" opacity="0.3"/>
    
    <!-- Corner brackets -->
    <path d="M5,2 L7,2 M5,2 L5,4 M17,2 L19,2 M19,2 L19,4 M5,20 L5,22 M5,22 L7,22 M19,20 L19,22 M17,22 L19,22" 
          stroke="#FF4654" stroke-width="1.5" fill="none"/>
    
    <!-- Signal waves -->
    <path d="M1,12 Q3,10 5,12 Q7,14 9,12" fill="none" stroke="#FF4654" stroke-width="1" opacity="0.4"/>
    <path d="M15,12 Q17,10 19,12 Q21,14 23,12" fill="none" stroke="#FF4654" stroke-width="1" opacity="0.4"/>
    
    <!-- Screen display -->
    <rect x="7" y="4" width="10" height="8" fill="none" stroke="#FF4654" stroke-width="1" opacity="0.4"/>
    <rect x="7" y="4" width="10" height="8" fill="#FF4654" opacity="0.05"/>
    
    <!-- Connection ports -->
    <circle cx="12" cy="3" r="0.5" fill="#FF4654"/>
    <circle cx="12" cy="21" r="0.5" fill="#FF4654"/>
    
    <!-- Status indicators -->
    <circle cx="16" cy="4" r="0.5" fill="#FF4654" opacity="0.8"/>
    <circle cx="16" cy="5.5" r="0.5" fill="#FF4654" opacity="0.6"/>
    <circle cx="16" cy="7" r="0.5" fill="#FF4654" opacity="0.4"/>
    
    <!-- Antenna signal -->
    <line x1="12" y1="2" x2="12" y2="0" stroke="#FF4654" stroke-width="1" opacity="0.6"/>
    <circle cx="12" cy="0" r="0.5" fill="#FF4654" opacity="0.8"/>
  </g>
</svg>