<svg width="24" height="24" viewBox="0 0 24 24" xmlns="http://www.w3.org/2000/svg">
  <defs>
    <linearGradient id="arsenalGrad" x1="0%" y1="0%" x2="100%" y2="100%">
      <stop offset="0%" style="stop-color:#FF4654;stop-opacity:1" />
      <stop offset="100%" style="stop-color:#FFCC00;stop-opacity:1" />
    </linearGradient>
    <filter id="glow">
      <feGaussianBlur stdDeviation="1" result="coloredBlur"/>
      <feMerge> 
        <feMergeNode in="coloredBlur"/>
        <feMergeNode in="SourceGraphic"/>
      </feMerge>
    </filter>
  </defs>
  
  <!-- Arsenal shield design -->
  <g filter="url(#glow)">
    <!-- Main shield -->
    <path d="M12 2L4 6V12C4 16.5 7 20.26 12 22C17 20.26 20 16.5 20 12V6L12 2Z" 
          fill="url(#arsenalGrad)" stroke="#FF4654" stroke-width="1.5" opacity="0.8"/>
    
    <!-- Inner core -->
    <path d="M12 4L6 7V12C6 15.5 8.5 18.5 12 20C15.5 18.5 18 15.5 18 12V7L12 4Z" 
          fill="#FFCC00" opacity="0.4"/>
    
    <!-- Central targeting system -->
    <circle cx="12" cy="12" r="3" fill="none" stroke="#FFCC00" stroke-width="1.5"/>
    <circle cx="12" cy="12" r="1.5" fill="#FFCC00"/>
    
    <!-- Power lines -->
    <line x1="12" y1="8" x2="12" y2="16" stroke="#FF4654" stroke-width="1"/>
    <line x1="8" y1="12" x2="16" y2="12" stroke="#FF4654" stroke-width="1"/>
    
    <!-- Corner brackets -->
    <path d="M4,6 L6,6 M4,6 L4,8 M18,6 L20,6 M20,6 L20,8 M6,18 L4,18 M4,18 L4,16 M20,16 L20,18 M18,18 L20,18" 
          stroke="#FFCC00" stroke-width="1.5" fill="none"/>
    
    <!-- Energy nodes -->
    <circle cx="12" cy="2" r="1" fill="#FFCC00"/>
    <circle cx="4" cy="6" r="0.8" fill="#FFCC00"/>
    <circle cx="20" cy="6" r="0.8" fill="#FFCC00"/>
    
    <!-- Tactical frame -->
    <rect x="3" y="1" width="18" height="21" fill="none" stroke="#FF4654" stroke-width="1" opacity="0.3"/>
  </g>
</svg>