<svg width="80" height="80" viewBox="0 0 80 80" xmlns="http://www.w3.org/2000/svg">
  <defs>
    <linearGradient id="reactGrad" x1="0%" y1="0%" x2="100%" y2="100%">
      <stop offset="0%" style="stop-color:#FF4654;stop-opacity:1" />
      <stop offset="100%" style="stop-color:#FF4654;stop-opacity:0.7" />
    </linearGradient>
    <filter id="glow">
      <feGaussianBlur stdDeviation="2" result="coloredBlur"/>
      <feMerge> 
        <feMergeNode in="coloredBlur"/>
        <feMergeNode in="SourceGraphic"/>
      </feMerge>
    </filter>
  </defs>
  
  <!-- Tactical frame -->
  <rect x="2" y="2" width="76" height="76" fill="none" stroke="#FF4654" stroke-width="2" opacity="0.3"/>
  <rect x="8" y="8" width="64" height="64" fill="none" stroke="url(#reactGrad)" stroke-width="1"/>
  
  <!-- Corner brackets -->
  <path d="M8,8 L15,8 M8,8 L8,15 M65,8 L72,8 M72,8 L72,15 M8,65 L8,72 M8,72 L15,72 M72,65 L72,72 M65,72 L72,72" 
        stroke="#FF4654" stroke-width="2" fill="none"/>
  
  <!-- React atom structure -->
  <g transform="translate(40,40)" filter="url(#glow)">
    <!-- Nucleus -->
    <circle cx="0" cy="0" r="4" fill="#FF4654"/>
    
    <!-- Electron orbits -->
    <ellipse cx="0" cy="0" rx="20" ry="8" fill="none" stroke="#FF4654" stroke-width="2" opacity="0.8"/>
    <ellipse cx="0" cy="0" rx="20" ry="8" fill="none" stroke="#FF4654" stroke-width="2" opacity="0.8" transform="rotate(60)"/>
    <ellipse cx="0" cy="0" rx="20" ry="8" fill="none" stroke="#FF4654" stroke-width="2" opacity="0.8" transform="rotate(120)"/>
    
    <!-- Electrons -->
    <circle cx="20" cy="0" r="2" fill="#FF4654"/>
    <circle cx="-10" cy="17" r="2" fill="#FF4654"/>
    <circle cx="-10" cy="-17" r="2" fill="#FF4654"/>
  </g>
  
  <!-- Tactical scan lines -->
  <line x1="0" y1="20" x2="80" y2="20" stroke="#FF4654" stroke-width="1" opacity="0.2"/>
  <line x1="0" y1="60" x2="80" y2="60" stroke="#FF4654" stroke-width="1" opacity="0.2"/>
</svg>