<svg width="60" height="60" viewBox="0 0 60 60" xmlns="http://www.w3.org/2000/svg">
  <defs>
    <linearGradient id="apiGrad" x1="0%" y1="0%" x2="100%" y2="100%">
      <stop offset="0%" style="stop-color:#FF4654;stop-opacity:1" />
      <stop offset="100%" style="stop-color:#FFCC00;stop-opacity:1" />
    </linearGradient>
    <filter id="glow">
      <feGaussianBlur stdDeviation="2" result="coloredBlur"/>
      <feMerge> 
        <feMergeNode in="coloredBlur"/>
        <feMergeNode in="SourceGraphic"/>
      </feMerge>
    </filter>
  </defs>
  
  <!-- API Connector design -->
  <g transform="translate(30,30)" filter="url(#glow)">
    <!-- Main connector housing -->
    <rect x="-12" y="-8" width="24" height="16" rx="2" 
          fill="url(#apiGrad)" stroke="#FF4654" stroke-width="2"/>
    
    <!-- Connection ports -->
    <g fill="#FFCC00" stroke="#FF4654" stroke-width="1">
      <!-- Left ports -->
      <circle cx="-18" cy="-4" r="2"/>
      <circle cx="-18" cy="0" r="2"/>
      <circle cx="-18" cy="4" r="2"/>
      
      <!-- Right ports -->
      <circle cx="18" cy="-4" r="2"/>
      <circle cx="18" cy="0" r="2"/>
      <circle cx="18" cy="4" r="2"/>
    </g>
    
    <!-- Connection cables -->
    <g stroke="#FFCC00" stroke-width="2" fill="none" opacity="0.8">
      <path d="M-16,-4 L-12,-4"/>
      <path d="M-16,0 L-12,0"/>
      <path d="M-16,4 L-12,4"/>
      <path d="M12,-4 L16,-4"/>
      <path d="M12,0 L16,0"/>
      <path d="M12,4 L16,4"/>
    </g>
    
    <!-- Data flow visualization -->
    <g fill="#FFCC00" opacity="0.6">
      <polygon points="-6,-2 -4,-4 -2,-2"/>
      <polygon points="-6,2 -4,0 -2,2"/>
      <polygon points="6,-2 4,-4 2,-2"/>
      <polygon points="6,2 4,0 2,2"/>
    </g>
    
    <!-- Status indicators -->
    <g fill="#00FF88">
      <circle cx="-8" cy="-6" r="1"/>
      <circle cx="0" cy="-6" r="1"/>
      <circle cx="8" cy="-6" r="1"/>
    </g>
    
    <!-- Energy particles -->
    <circle cx="-18" cy="-15" r="2" fill="#FFCC00" opacity="0.8"/>
    <circle cx="18" cy="15" r="2" fill="#FFCC00" opacity="0.8"/>
    <circle cx="-15" cy="18" r="1.5" fill="#FF4654" opacity="0.6"/>
    <circle cx="15" cy="-18" r="1.5" fill="#FF4654" opacity="0.6"/>
    
    <!-- Tactical frame -->
    <rect x="-25" y="-25" width="50" height="50" fill="none" stroke="#FF4654" stroke-width="2" opacity="0.3"/>
    
    <!-- Corner brackets -->
    <path d="M-25,-25 L-20,-25 M-25,-25 L-25,-20 M20,-25 L25,-25 M25,-25 L25,-20 M-25,20 L-25,25 M-25,25 L-20,25 M25,20 L25,25 M20,25 L25,25" 
          stroke="#FFCC00" stroke-width="2" fill="none"/>
    
    <!-- Power indicators -->
    <circle cx="-22" cy="-22" r="1.5" fill="#FFCC00"/>
    <circle cx="22" cy="-22" r="1.5" fill="#FFCC00"/>
    <circle cx="22" cy="22" r="1.5" fill="#FFCC00"/>
    <circle cx="-22" cy="22" r="1.5" fill="#FFCC00"/>
    
    <!-- Central core -->
    <circle cx="0" cy="12" r="3" fill="#FFCC00" opacity="0.8"/>
    <text x="0" y="14" text-anchor="middle" font-family="monospace" font-size="3" 
          fill="#0D1117" font-weight="bold">API</text>
  </g>
</svg>
