<svg width="40" height="40" viewBox="0 0 40 40" xmlns="http://www.w3.org/2000/svg">
  <defs>
    <filter id="glow">
      <feGaussianBlur stdDeviation="1" result="coloredBlur"/>
      <feMerge> 
        <feMergeNode in="coloredBlur"/>
        <feMergeNode in="SourceGraphic"/>
      </feMerge>
    </filter>
  </defs>
  
  <!-- Tailwind wave pattern -->
  <g transform="translate(20,20)" filter="url(#glow)">
    <path d="M-14,-6 Q-10,-10 -6,-6 Q-2,-2 2,-6 Q6,-10 10,-6 Q14,-2 18,-6" 
          fill="none" stroke="#FF4654" stroke-width="2" opacity="0.8"/>
    <path d="M-14,0 Q-10,-4 -6,0 Q-2,4 2,0 Q6,-4 10,0 Q14,4 18,0" 
          fill="none" stroke="#FF4654" stroke-width="2" opacity="0.6"/>
    <path d="M-14,6 Q-10,2 -6,6 Q-2,10 2,6 Q6,2 10,6 Q14,10 18,6" 
          fill="none" stroke="#FF4654" stroke-width="2" opacity="0.4"/>
    
    <!-- Tactical frame -->
    <rect x="-16" y="-12" width="32" height="24" fill="none" stroke="#FF4654" stroke-width="1" opacity="0.2"/>
    
    <!-- Connection points -->
    <circle cx="-14" cy="-6" r="1" fill="#FF4654"/>
    <circle cx="-6" cy="-6" r="1" fill="#FF4654"/>
    <circle cx="2" cy="-6" r="1" fill="#FF4654"/>
    <circle cx="10" cy="-6" r="1" fill="#FF4654"/>
  </g>
</svg>