<svg width="40" height="40" viewBox="0 0 40 40" xmlns="http://www.w3.org/2000/svg">
  <defs>
    <filter id="glow">
      <feGaussianBlur stdDeviation="1" result="coloredBlur"/>
      <feMerge> 
        <feMergeNode in="coloredBlur"/>
        <feMergeNode in="SourceGraphic"/>
      </feMerge>
    </filter>
  </defs>
  
  <!-- Laravel geometric pattern -->
  <g transform="translate(20,20)" filter="url(#glow)">
    <path d="M-12,-8 L0,-12 L12,-8 L12,8 L0,12 L-12,8 Z" 
          fill="none" stroke="#FF4654" stroke-width="1.5"/>
    <path d="M-12,-8 L0,-12 L12,-8 L12,8 L0,12 L-12,8 Z" 
          fill="#FF4654" opacity="0.1"/>
    
    <!-- Inner diamond -->
    <path d="M-6,-4 L0,-6 L6,-4 L6,4 L0,6 L-6,4 Z" 
          fill="none" stroke="#FF4654" stroke-width="1" opacity="0.6"/>
    
    <!-- Central core -->
    <circle cx="0" cy="0" r="2" fill="#FF4654"/>
    <text x="0" y="1" text-anchor="middle" font-family="monospace" font-size="2" 
          fill="#0D1117" font-weight="bold">L</text>
    
    <!-- Connection lines -->
    <line x1="-12" y1="-8" x2="0" y2="0" stroke="#FF4654" stroke-width="1" opacity="0.3"/>
    <line x1="12" y1="-8" x2="0" y2="0" stroke="#FF4654" stroke-width="1" opacity="0.3"/>
    <line x1="12" y1="8" x2="0" y2="0" stroke="#FF4654" stroke-width="1" opacity="0.3"/>
    <line x1="-12" y1="8" x2="0" y2="0" stroke="#FF4654" stroke-width="1" opacity="0.3"/>
    
    <!-- Corner nodes -->
    <circle cx="-12" cy="-8" r="1" fill="#FF4654"/>
    <circle cx="12" cy="-8" r="1" fill="#FF4654"/>
    <circle cx="12" cy="8" r="1" fill="#FF4654"/>
    <circle cx="-12" cy="8" r="1" fill="#FF4654"/>
    <circle cx="0" cy="-12" r="1" fill="#FF4654"/>
    <circle cx="0" cy="12" r="1" fill="#FF4654"/>
  </g>
</svg>