<svg width="80" height="80" viewBox="0 0 80 80" xmlns="http://www.w3.org/2000/svg">
  <defs>
    <linearGradient id="viteGrad" x1="0%" y1="0%" x2="100%" y2="100%">
      <stop offset="0%" style="stop-color:#FF4654;stop-opacity:1" />
      <stop offset="100%" style="stop-color:#FF4654;stop-opacity:0.6" />
    </linearGradient>
    <filter id="glow">
      <feGaussianBlur stdDeviation="2" result="coloredBlur"/>
      <feMerge> 
        <feMergeNode in="coloredBlur"/>
        <feMergeNode in="SourceGraphic"/>
      </feMerge>
    </filter>
  </defs>
  
  <!-- Tactical frame -->
  <rect x="2" y="2" width="76" height="76" fill="none" stroke="#FF4654" stroke-width="2" opacity="0.3"/>
  <rect x="8" y="8" width="64" height="64" fill="none" stroke="url(#viteGrad)" stroke-width="1"/>
  
  <!-- Corner brackets -->
  <path d="M8,8 L15,8 M8,8 L8,15 M65,8 L72,8 M72,8 L72,15 M8,65 L8,72 M8,72 L15,72 M72,65 L72,72 M65,72 L72,72" 
        stroke="#FF4654" stroke-width="2" fill="none"/>
  
  <!-- Vite lightning bolt -->
  <g transform="translate(40,40)" filter="url(#glow)">
    <path d="M-8,-20 L8,-5 L-2,-5 L8,20 L-8,5 L2,5 Z" 
          fill="url(#viteGrad)" stroke="#FF4654" stroke-width="1"/>
    
    <!-- Energy particles -->
    <circle cx="-15" cy="-10" r="1.5" fill="#FF4654" opacity="0.8"/>
    <circle cx="15" cy="10" r="1.5" fill="#FF4654" opacity="0.8"/>
    <circle cx="-12" cy="15" r="1" fill="#FF4654" opacity="0.6"/>
    <circle cx="12" cy="-15" r="1" fill="#FF4654" opacity="0.6"/>
  </g>
  
  <!-- Tactical crosshair -->
  <line x1="35" y1="12" x2="45" y2="12" stroke="#FF4654" stroke-width="1" opacity="0.5"/>
  <line x1="40" y1="7" x2="40" y2="17" stroke="#FF4654" stroke-width="1" opacity="0.5"/>
  
  <!-- Scan lines -->
  <line x1="0" y1="25" x2="80" y2="25" stroke="#FF4654" stroke-width="1" opacity="0.2"/>
  <line x1="0" y1="55" x2="80" y2="55" stroke="#FF4654" stroke-width="1" opacity="0.2"/>
</svg>